<svg xmlns="http://www.w3.org/2000/svg" viewBox="0 0 512 512" role="img" aria-labelledby="title"><title id="title">Squish — nomnom</title><defs><linearGradient id="skin" gradientUnits="userSpaceOnUse" x1="200" y1="100" x2="450" y2="620"><stop offset="0" stop-color="#FDF3EA"/><stop offset=".4" stop-color="#F4DDCC"/><stop offset="1" stop-color="#E2BFA9"/></linearGradient><linearGradient id="arm" x1="15%" y1="0%" x2="65%" y2="100%"><stop offset="0" stop-color="#F4DDCC"/><stop offset=".4" stop-color="#F4DDCC"/><stop offset="1" stop-color="#E2BFA9"/></linearGradient><linearGradient id="rose" x1="15%" y1="0%" x2="65%" y2="100%"><stop offset="0" stop-color="#FFB4C3"/><stop offset=".5" stop-color="#F4899F"/><stop offset="1" stop-color="#F27795"/></linearGradient><linearGradient id="mint" x1="15%" y1="0%" x2="65%" y2="100%"><stop offset="0" stop-color="#7DC79A"/><stop offset="1" stop-color="#459F80"/></linearGradient><radialGradient id="belly-light" gradientUnits="userSpaceOnUse" cx="0" cy="0" r="1" gradientTransform="translate(340 440) scale(220 230)"><stop stop-color="#FDF3EA" stop-opacity="0.56"/><stop offset="1" stop-color="#FDF3EA" stop-opacity="0"/></radialGradient><radialGradient id="body-edge" gradientUnits="userSpaceOnUse" cx="0" cy="0" r="1" gradientTransform="translate(510 510) scale(230 250)"><stop stop-color="#E8B39D" stop-opacity="0.22"/><stop offset="1" stop-color="#E8B39D" stop-opacity="0"/></radialGradient><radialGradient id="floor-shadow" gradientUnits="userSpaceOnUse" cx="0" cy="0" r="1" gradientTransform="translate(340 611) scale(260 24)"><stop stop-color="#AE827D" stop-opacity="0.25"/><stop offset="1" stop-color="#AE827D" stop-opacity="0"/></radialGradient><radialGradient id="arm-shadow-left" gradientUnits="userSpaceOnUse" cx="0" cy="0" r="1" gradientTransform="translate(180 527) scale(118 47)"><stop stop-color="#B98270" stop-opacity="0.27"/><stop offset="1" stop-color="#B98270" stop-opacity="0"/></radialGradient><radialGradient id="arm-shadow-right" gradientUnits="userSpaceOnUse" cx="0" cy="0" r="1" gradientTransform="translate(488 527) scale(112 47)"><stop stop-color="#B98270" stop-opacity="0.25"/><stop offset="1" stop-color="#B98270" stop-opacity="0"/></radialGradient><radialGradient id="blush-fill"><stop stop-color="#F4899F" stop-opacity=".56"/><stop offset=".8" stop-color="#F4899F" stop-opacity=".42"/><stop offset="1" stop-color="#F4899F" stop-opacity=".22"/></radialGradient><linearGradient id="arm-blend" x1="0%" y1="0%" x2="25%" y2="100%"><stop stop-color="#F4DDCC" stop-opacity="0"/><stop offset=".28" stop-color="#F4DDCC"/><stop offset="1" stop-color="#E2BFA9"/></linearGradient><clipPath id="body-clip"><path id="body-clip-contour" d="M342 94C424 89 489 138 524 218C544 265 563 320 582 381C605 458 610 521 583 563C559 603 513 614 461 615H349C300 616 249 614 202 612C145 609 108 584 91 539C72 489 79 434 100 367C120 305 137 250 160 202C196 133 261 96 342 94Z" fill="#FFFFFF" /></clipPath></defs><g id="squish-nomnom" transform="translate(35.00 44) scale(.65)"><g id="shadow" ><path id="ground-shadow" d="M77 611a263 26 0 1 0 526 0a263 26 0 1 0 -526 0Z" fill="url(#floor-shadow)" /></g><g id="body" ><path id="body-base" d="M342 94C424 89 489 138 524 218C544 265 563 320 582 381C605 458 610 521 583 563C559 603 513 614 461 615H349C300 616 249 614 202 612C145 609 108 584 91 539C72 489 79 434 100 367C120 305 137 250 160 202C196 133 261 96 342 94Z" fill="url(#skin)" /><path id="body-light" d="M342 94C424 89 489 138 524 218C544 265 563 320 582 381C605 458 610 521 583 563C559 603 513 614 461 615H349C300 616 249 614 202 612C145 609 108 584 91 539C72 489 79 434 100 367C120 305 137 250 160 202C196 133 261 96 342 94Z" fill="url(#belly-light)" /><path id="body-edge-shading" d="M342 94C424 89 489 138 524 218C544 265 563 320 582 381C605 458 610 521 583 563C559 603 513 614 461 615H349C300 616 249 614 202 612C145 609 108 584 91 539C72 489 79 434 100 367C120 305 137 250 160 202C196 133 261 96 342 94Z" fill="url(#body-edge)" /></g><g id="feet" ><path id="foot-left" d="M200 582a70 32 0 1 0 140 0a70 32 0 1 0 -140 0Z" fill="#E2BFA9" opacity=".10"/><path id="foot-right" d="M340 582a70 32 0 1 0 140 0a70 32 0 1 0 -140 0Z" fill="#E2BFA9" opacity=".10"/></g><g id="contact-shading" clip-path="url(#body-clip)"><path id="arm-contact-left" d="M342 94C424 89 489 138 524 218C544 265 563 320 582 381C605 458 610 521 583 563C559 603 513 614 461 615H349C300 616 249 614 202 612C145 609 108 584 91 539C72 489 79 434 100 367C120 305 137 250 160 202C196 133 261 96 342 94Z" fill="url(#arm-shadow-left)" /><path id="arm-contact-right" d="M342 94C424 89 489 138 524 218C544 265 563 320 582 381C605 458 610 521 583 563C559 603 513 614 461 615H349C300 616 249 614 202 612C145 609 108 584 91 539C72 489 79 434 100 367C120 305 137 250 160 202C196 133 261 96 342 94Z" fill="url(#arm-shadow-right)" /></g><g id="face" data-mood="nomnom"><g id="eyes" transform="scale(4)"><path id="eye-left" d="M54.865 72.500C54.803 73.933 55.671 75.790 57.500 75.087C58.197 74.819 58.904 73.797 59.500 73.443C60.465 72.869 61.352 72.497 62.500 72.497C64.195 72.497 65.017 73.659 66.500 74.046C68.078 74.459 68.962 72.808 68.911 71.500C68.879 70.691 68.640 70.218 68.369 69.500C67.482 67.144 65.939 65.479 63.500 64.713C62.744 64.476 62.058 64.281 61.261 64.500C57.437 65.553 55.037 68.482 54.865 72.500Z" fill="#2B2340" /><path id="eye-right" d="M97.995 70.500C98.053 71.668 99.004 73.483 100.500 73.065C100.773 72.988 102.369 71.683 102.500 71.591C103.619 70.807 105.254 70.969 106.500 71.318C107.635 71.635 108.409 72.770 109.500 73.155C110.700 73.579 111.802 72.602 112.113 71.500C112.477 70.211 111.824 68.667 111.365 67.500C110.326 64.858 107.258 61.885 104.146 62.500C100.377 63.245 97.802 66.646 97.995 70.500Z" fill="#2B2340" /></g><g id="mouth" transform="scale(4)"><path id="mouth-shape" d="M74.415 77.500C74.415 78.612 75.759 79.758 76.500 80.405C78.247 81.929 81.243 82.720 83.500 82.508C86.331 82.242 88.995 81.528 91.083 79.500C91.840 78.764 92.718 77.594 92.878 76.500C93.053 75.297 91.771 73.685 90.500 73.757C89.174 73.832 88.213 75.571 87.500 76.485C86.849 77.321 85.499 77.800 84.500 77.927C82.491 78.181 81.077 77.727 79.500 76.559C78.894 76.110 78.223 75.077 77.500 74.737C75.816 73.942 74.415 76.058 74.415 77.500Z" fill="#2B2340" /></g><g id="blush" ><path id="blush-left" d="M173 331a37 35 0 1 0 74 0a37 35 0 1 0 -74 0Z" fill="url(#blush-fill)" /><path id="blush-right" d="M424 327a38 35 0 1 0 76 0a38 35 0 1 0 -76 0Z" fill="url(#blush-fill)" /></g></g><g id="props" ><g id="leaf" transform="translate(147 64)"><path id="leaf-shape" d="M0 15C12 -1 54 -8 83 6C98 12 109 26 117 43C94 57 84 63 62 77C25 77 2 53 0 15Z" fill="url(#mint)" /><path id="leaf-vein" d="M37 25C64 30 84 40 103 50L100 53C80 40 59 33 37 25Z" fill="#499979" /></g><path id="watermelon-rind" d="M205 380H473C486 381 485 397 480 410C462 493 403 536 341 538C269 537 217 490 202 411C199 399 196 383 205 380Z" fill="url(#mint)" /><path id="watermelon-inner-rind" d="M219 382H465C460 458 415 519 341 522C274 520 229 463 219 382Z" fill="#A8D6A2" /><path id="watermelon-flesh" d="M226 383H457C451 453 410 501 342 504C281 503 237 454 226 383Z" fill="url(#rose)" /><path id="seed-0" d="M-5 -7C-4 -13 4 -13 5 -6L5 3C4 12 -4 12 -5 4Z" fill="#4A2934" transform="translate(279 421) rotate(35)"/><path id="seed-1" d="M-5 -7C-4 -13 4 -13 5 -6L5 3C4 12 -4 12 -5 4Z" fill="#4A2934" transform="translate(310 451) rotate(20)"/><path id="seed-2" d="M-5 -7C-4 -13 4 -13 5 -6L5 3C4 12 -4 12 -5 4Z" fill="#4A2934" transform="translate(366 449) rotate(-25)"/><path id="seed-3" d="M-5 -7C-4 -13 4 -13 5 -6L5 3C4 12 -4 12 -5 4Z" fill="#4A2934" transform="translate(398 418) rotate(-40)"/></g><g id="arms" ><g id="arm-left" ><path id="arm-left-base" d="M128 365C155 374 176 398 203 410C240 423 264 442 268 468C275 503 251 527 220 535C188 544 151 536 131 518C110 500 102 474 103 449C105 422 115 387 128 365Z" fill="url(#skin)" /><path id="arm-left-light" d="M128 365C155 374 176 398 203 410C240 423 264 442 268 468C275 503 251 527 220 535C188 544 151 536 131 518C110 500 102 474 103 449C105 422 115 387 128 365Z" fill="url(#belly-light)" /><path id="arm-left-edge" d="M128 365C155 374 176 398 203 410C240 423 264 442 268 468C275 503 251 527 220 535C188 544 151 536 131 518C110 500 102 474 103 449C105 422 115 387 128 365Z" fill="url(#body-edge)" /></g><g id="arm-right" ><path id="arm-right-base" d="M555 365C530 376 507 398 479 410C443 423 419 442 415 468C408 503 432 527 463 535C495 544 532 536 552 518C573 500 581 474 580 449C578 422 569 387 555 365Z" fill="url(#skin)" /><path id="arm-right-light" d="M555 365C530 376 507 398 479 410C443 423 419 442 415 468C408 503 432 527 463 535C495 544 532 536 552 518C573 500 581 474 580 449C578 422 569 387 555 365Z" fill="url(#belly-light)" /><path id="arm-right-edge" d="M555 365C530 376 507 398 479 410C443 423 419 442 415 468C408 503 432 527 463 535C495 544 532 536 552 518C573 500 581 474 580 449C578 422 569 387 555 365Z" fill="url(#body-edge)" /></g></g><g id="accents" ></g></g></svg>