<svg xmlns="http://www.w3.org/2000/svg" viewBox="0 0 512 512" role="img" aria-label="thinking arms"><defs><linearGradient xmlns="http://www.w3.org/2000/svg" id="sq-thinking-skin" gradientUnits="userSpaceOnUse" x1="200" y1="100" x2="450" y2="620"><stop offset="0" stop-color="#FDF3EA" /><stop offset=".4" stop-color="#F4DDCC" /><stop offset="1" stop-color="#E2BFA9" /></linearGradient><linearGradient xmlns="http://www.w3.org/2000/svg" id="sq-thinking-arm" x1="15%" y1="0%" x2="65%" y2="100%"><stop offset="0" stop-color="#F4DDCC" /><stop offset=".4" stop-color="#F4DDCC" /><stop offset="1" stop-color="#E2BFA9" /></linearGradient><linearGradient xmlns="http://www.w3.org/2000/svg" id="sq-thinking-rose" x1="15%" y1="0%" x2="65%" y2="100%"><stop offset="0" stop-color="#FFB4C3" /><stop offset=".5" stop-color="#F4899F" /><stop offset="1" stop-color="#F27795" /></linearGradient><linearGradient xmlns="http://www.w3.org/2000/svg" id="sq-thinking-mint" x1="15%" y1="0%" x2="65%" y2="100%"><stop offset="0" stop-color="#7DC79A" /><stop offset="1" stop-color="#459F80" /></linearGradient><radialGradient xmlns="http://www.w3.org/2000/svg" id="sq-thinking-belly-light" gradientUnits="userSpaceOnUse" cx="0" cy="0" r="1" gradientTransform="translate(363 440) scale(220 230)"><stop stop-color="#FDF3EA" stop-opacity="0.56" /><stop offset="1" stop-color="#FDF3EA" stop-opacity="0" /></radialGradient><radialGradient xmlns="http://www.w3.org/2000/svg" id="sq-thinking-body-edge" gradientUnits="userSpaceOnUse" cx="0" cy="0" r="1" gradientTransform="translate(533 510) scale(230 250)"><stop stop-color="#E8B39D" stop-opacity="0.22" /><stop offset="1" stop-color="#E8B39D" stop-opacity="0" /></radialGradient><radialGradient xmlns="http://www.w3.org/2000/svg" id="sq-thinking-floor-shadow" gradientUnits="userSpaceOnUse" cx="0" cy="0" r="1" gradientTransform="translate(363 609) scale(260 24)"><stop stop-color="#AE827D" stop-opacity="0.25" /><stop offset="1" stop-color="#AE827D" stop-opacity="0" /></radialGradient><radialGradient xmlns="http://www.w3.org/2000/svg" id="sq-thinking-arm-shadow-left" gradientUnits="userSpaceOnUse" cx="0" cy="0" r="1" gradientTransform="translate(230 527) scale(118 47)"><stop stop-color="#B98270" stop-opacity="0.27" /><stop offset="1" stop-color="#B98270" stop-opacity="0" /></radialGradient><radialGradient xmlns="http://www.w3.org/2000/svg" id="sq-thinking-arm-shadow-right" gradientUnits="userSpaceOnUse" cx="0" cy="0" r="1" gradientTransform="translate(488 527) scale(112 47)"><stop stop-color="#B98270" stop-opacity="0.25" /><stop offset="1" stop-color="#B98270" stop-opacity="0" /></radialGradient><radialGradient xmlns="http://www.w3.org/2000/svg" id="sq-thinking-blush-fill"><stop stop-color="#F4899F" stop-opacity=".56" /><stop offset=".8" stop-color="#F4899F" stop-opacity=".42" /><stop offset="1" stop-color="#F4899F" stop-opacity=".22" /></radialGradient><linearGradient xmlns="http://www.w3.org/2000/svg" id="sq-thinking-arm-blend" x1="0%" y1="0%" x2="25%" y2="100%"><stop stop-color="#F4DDCC" stop-opacity="0" /><stop offset=".28" stop-color="#F4DDCC" /><stop offset="1" stop-color="#E2BFA9" /></linearGradient><clipPath xmlns="http://www.w3.org/2000/svg" id="sq-thinking-body-clip"><path id="sq-thinking-body-clip-contour" d="M355 80C426 77 491 129 530 198C559 251 577 296 592 341C609 393 613 444 594 490C572 546 537 585 493 603C452 620 407 618 377 604L341 587C319 609 280 619 242 615C188 612 143 587 122 550C104 519 98 472 102 434C106 390 125 348 139 311C154 271 157 236 178 196C211 129 278 80 355 80Z" fill="#FFFFFF" /></clipPath></defs><g id="arms"><g transform="translate(9.00 44) scale(.65)"><g xmlns="http://www.w3.org/2000/svg" id="sq-thinking-arms"><g id="sq-thinking-arm-left"><path id="sq-thinking-arm-left-base" d="M160 354C173 370 189 380 209 373C228 369 248 348 266 335C285 320 305 321 321 334C336 347 332 365 328 378C349 403 344 438 324 463C301 491 270 508 238 512C204 517 168 503 147 482C128 461 122 436 125 410C128 389 143 365 160 354Z" fill="url(#sq-thinking-skin)" /><path id="sq-thinking-arm-left-light" d="M160 354C173 370 189 380 209 373C228 369 248 348 266 335C285 320 305 321 321 334C336 347 332 365 328 378C349 403 344 438 324 463C301 491 270 508 238 512C204 517 168 503 147 482C128 461 122 436 125 410C128 389 143 365 160 354Z" fill="url(#sq-thinking-belly-light)" /><path id="sq-thinking-arm-left-edge" d="M160 354C173 370 189 380 209 373C228 369 248 348 266 335C285 320 305 321 321 334C336 347 332 365 328 378C349 403 344 438 324 463C301 491 270 508 238 512C204 517 168 503 147 482C128 461 122 436 125 410C128 389 143 365 160 354Z" fill="url(#sq-thinking-body-edge)" /></g><g id="sq-thinking-arm-right"><path id="sq-thinking-arm-right-base" d="M560 361C575 370 588 389 601 414C618 445 636 477 638 504C640 528 626 548 604 555C581 562 563 550 553 531C543 512 545 489 548 468C552 429 557 393 560 361Z" fill="url(#sq-thinking-skin)" /><path id="sq-thinking-arm-right-light" d="M560 361C575 370 588 389 601 414C618 445 636 477 638 504C640 528 626 548 604 555C581 562 563 550 553 531C543 512 545 489 548 468C552 429 557 393 560 361Z" fill="url(#sq-thinking-belly-light)" /><path id="sq-thinking-arm-right-edge" d="M560 361C575 370 588 389 601 414C618 445 636 477 638 504C640 528 626 548 604 555C581 562 563 550 553 531C543 512 545 489 548 468C552 429 557 393 560 361Z" fill="url(#sq-thinking-body-edge)" /></g></g></g></g></svg>