<svg xmlns="http://www.w3.org/2000/svg" viewBox="0 0 1344 690" role="img" aria-label="blossom-garden night"><defs><linearGradient id="pink" x1="10%" y1="0%" x2="80%" y2="100%"><stop stop-color="#FFC8D7"/><stop offset="1" stop-color="#E995B1"/></linearGradient><linearGradient id="mint" x1="10%" y1="0%" x2="80%" y2="100%"><stop stop-color="#CAE6C0"/><stop offset="1" stop-color="#8CBD9D"/></linearGradient><linearGradient id="gold" x1="10%" y1="0%" x2="80%" y2="100%"><stop stop-color="#FFF0B8"/><stop offset="1" stop-color="#E5C16D"/></linearGradient><linearGradient id="purple" x1="10%" y1="0%" x2="80%" y2="100%"><stop stop-color="#DAD0F7"/><stop offset="1" stop-color="#AA97D2"/></linearGradient><linearGradient id="peach" x1="10%" y1="0%" x2="80%" y2="100%"><stop stop-color="#FFDFB7"/><stop offset="1" stop-color="#F0B57C"/></linearGradient><linearGradient id="blue" x1="10%" y1="0%" x2="80%" y2="100%"><stop stop-color="#D7ECF6"/><stop offset="1" stop-color="#A3C6DD"/></linearGradient></defs><path d="M0 0H1344V690H0Z" fill="#252F3F" /><path d="M0 618H1344V690H0Z" fill="#41554B" /><g id="front"><path d="M1152 276H1173V618H1152Z" fill="#8C7B79" /><ellipse cx="1162" cy="226" rx="97" ry="97" fill="#8D7892" /><ellipse cx="1075" cy="285" rx="74" ry="74" fill="#8D7892" /><ellipse cx="1245" cy="289" rx="77" ry="77" fill="#8D7892" /><ellipse cx="1117.5" cy="204.0" rx="8.16" ry="8.16" fill="#C5A7BE" /><ellipse cx="1111.626644452187" cy="212.0839803885088" rx="8.16" ry="8.16" fill="#C5A7BE" /><ellipse cx="1102.123355547813" cy="208.99617464448602" rx="8.16" ry="8.16" fill="#C5A7BE" /><ellipse cx="1102.123355547813" cy="199.00382535551398" rx="8.16" ry="8.16" fill="#C5A7BE" /><ellipse cx="1111.626644452187" cy="195.9160196114912" rx="8.16" ry="8.16" fill="#C5A7BE" /><ellipse cx="1109" cy="204" rx="4.25" ry="4.25" fill="#E8C675" /><ellipse cx="1205.5" cy="267.0" rx="8.16" ry="8.16" fill="#C5A7BE" /><ellipse cx="1199.626644452187" cy="275.0839803885088" rx="8.16" ry="8.16" fill="#C5A7BE" /><ellipse cx="1190.123355547813" cy="271.996174644486" rx="8.16" ry="8.16" fill="#C5A7BE" /><ellipse cx="1190.123355547813" cy="262.003825355514" rx="8.16" ry="8.16" fill="#C5A7BE" /><ellipse cx="1199.626644452187" cy="258.9160196114912" rx="8.16" ry="8.16" fill="#C5A7BE" /><ellipse cx="1197" cy="267" rx="4.25" ry="4.25" fill="#E8C675" /><ellipse cx="1268.5" cy="320.0" rx="8.16" ry="8.16" fill="#C5A7BE" /><ellipse cx="1262.626644452187" cy="328.0839803885088" rx="8.16" ry="8.16" fill="#C5A7BE" /><ellipse cx="1253.123355547813" cy="324.996174644486" rx="8.16" ry="8.16" fill="#C5A7BE" /><ellipse cx="1253.123355547813" cy="315.003825355514" rx="8.16" ry="8.16" fill="#C5A7BE" /><ellipse cx="1262.626644452187" cy="311.9160196114912" rx="8.16" ry="8.16" fill="#C5A7BE" /><ellipse cx="1260" cy="320" rx="4.25" ry="4.25" fill="#E8C675" /><ellipse cx="1053.5" cy="279.0" rx="8.16" ry="8.16" fill="#C5A7BE" /><ellipse cx="1047.626644452187" cy="287.0839803885088" rx="8.16" ry="8.16" fill="#C5A7BE" /><ellipse cx="1038.123355547813" cy="283.996174644486" rx="8.16" ry="8.16" fill="#C5A7BE" /><ellipse cx="1038.123355547813" cy="274.003825355514" rx="8.16" ry="8.16" fill="#C5A7BE" /><ellipse cx="1047.626644452187" cy="270.9160196114912" rx="8.16" ry="8.16" fill="#C5A7BE" /><ellipse cx="1045" cy="279" rx="4.25" ry="4.25" fill="#E8C675" /><ellipse cx="1168.5" cy="330.0" rx="8.16" ry="8.16" fill="#C5A7BE" /><ellipse cx="1162.626644452187" cy="338.0839803885088" rx="8.16" ry="8.16" fill="#C5A7BE" /><ellipse cx="1153.123355547813" cy="334.996174644486" rx="8.16" ry="8.16" fill="#C5A7BE" /><ellipse cx="1153.123355547813" cy="325.003825355514" rx="8.16" ry="8.16" fill="#C5A7BE" /><ellipse cx="1162.626644452187" cy="321.9160196114912" rx="8.16" ry="8.16" fill="#C5A7BE" /><ellipse cx="1160" cy="330" rx="4.25" ry="4.25" fill="#E8C675" /><path d="M939 548H1087V565H939ZM953 565h12v53h-12ZM1060 565h12v53h-12Z" fill="#AC9A9F" /><path d="M945 500H1082V536H945Z" fill="#AC9A9F" /><path d="M960 594V618" fill="none" stroke="#83AA8F" stroke-width="4" stroke-linecap="round" stroke-linejoin="round"/><ellipse cx="965.5" cy="594.0" rx="5.279999999999999" ry="5.279999999999999" fill="#EAC3D2" /><ellipse cx="961.6995934690622" cy="599.2308108396234" rx="5.279999999999999" ry="5.279999999999999" fill="#EAC3D2" /><ellipse cx="955.5504065309378" cy="597.2328188876086" rx="5.279999999999999" ry="5.279999999999999" fill="#EAC3D2" /><ellipse cx="955.5504065309378" cy="590.7671811123914" rx="5.279999999999999" ry="5.279999999999999" fill="#EAC3D2" /><ellipse cx="961.6995934690622" cy="588.7691891603766" rx="5.279999999999999" ry="5.279999999999999" fill="#EAC3D2" /><ellipse cx="960" cy="594" rx="2.75" ry="2.75" fill="#E8C675" /><path d="M1281 580V618" fill="none" stroke="#83AA8F" stroke-width="4" stroke-linecap="round" stroke-linejoin="round"/><ellipse cx="1286.5" cy="580.0" rx="5.279999999999999" ry="5.279999999999999" fill="#EAC3D2" /><ellipse cx="1282.6995934690622" cy="585.2308108396234" rx="5.279999999999999" ry="5.279999999999999" fill="#EAC3D2" /><ellipse cx="1276.5504065309378" cy="583.2328188876086" rx="5.279999999999999" ry="5.279999999999999" fill="#EAC3D2" /><ellipse cx="1276.5504065309378" cy="576.7671811123914" rx="5.279999999999999" ry="5.279999999999999" fill="#EAC3D2" /><ellipse cx="1282.6995934690622" cy="574.7691891603766" rx="5.279999999999999" ry="5.279999999999999" fill="#EAC3D2" /><ellipse cx="1281" cy="580" rx="2.75" ry="2.75" fill="#E8C675" /><path d="M1221 603V618" fill="none" stroke="#83AA8F" stroke-width="4" stroke-linecap="round" stroke-linejoin="round"/><ellipse cx="1226.5" cy="603.0" rx="5.279999999999999" ry="5.279999999999999" fill="#EAC3D2" /><ellipse cx="1222.6995934690622" cy="608.2308108396234" rx="5.279999999999999" ry="5.279999999999999" fill="#EAC3D2" /><ellipse cx="1216.5504065309378" cy="606.2328188876086" rx="5.279999999999999" ry="5.279999999999999" fill="#EAC3D2" /><ellipse cx="1216.5504065309378" cy="599.7671811123914" rx="5.279999999999999" ry="5.279999999999999" fill="#EAC3D2" /><ellipse cx="1222.6995934690622" cy="597.7691891603766" rx="5.279999999999999" ry="5.279999999999999" fill="#EAC3D2" /><ellipse cx="1221" cy="603" rx="2.75" ry="2.75" fill="#E8C675" /></g></svg>