<svg xmlns="http://www.w3.org/2000/svg" viewBox="0 0 512 512" role="img" aria-label="sleepy accents"><defs><linearGradient xmlns="http://www.w3.org/2000/svg" id="sq-sleepy-skin" gradientUnits="userSpaceOnUse" x1="200" y1="100" x2="450" y2="620"><stop offset="0" stop-color="#FDF3EA" /><stop offset=".4" stop-color="#F4DDCC" /><stop offset="1" stop-color="#E2BFA9" /></linearGradient><linearGradient xmlns="http://www.w3.org/2000/svg" id="sq-sleepy-arm" x1="15%" y1="0%" x2="65%" y2="100%"><stop offset="0" stop-color="#F4DDCC" /><stop offset=".4" stop-color="#F4DDCC" /><stop offset="1" stop-color="#E2BFA9" /></linearGradient><linearGradient xmlns="http://www.w3.org/2000/svg" id="sq-sleepy-rose" x1="15%" y1="0%" x2="65%" y2="100%"><stop offset="0" stop-color="#FFB4C3" /><stop offset=".5" stop-color="#F4899F" /><stop offset="1" stop-color="#F27795" /></linearGradient><linearGradient xmlns="http://www.w3.org/2000/svg" id="sq-sleepy-mint" x1="15%" y1="0%" x2="65%" y2="100%"><stop offset="0" stop-color="#7DC79A" /><stop offset="1" stop-color="#459F80" /></linearGradient><radialGradient xmlns="http://www.w3.org/2000/svg" id="sq-sleepy-belly-light" gradientUnits="userSpaceOnUse" cx="0" cy="0" r="1" gradientTransform="translate(375 470) scale(220 230)"><stop stop-color="#FDF3EA" stop-opacity="0.56" /><stop offset="1" stop-color="#FDF3EA" stop-opacity="0" /></radialGradient><radialGradient xmlns="http://www.w3.org/2000/svg" id="sq-sleepy-body-edge" gradientUnits="userSpaceOnUse" cx="0" cy="0" r="1" gradientTransform="translate(545 510) scale(230 250)"><stop stop-color="#E8B39D" stop-opacity="0.22" /><stop offset="1" stop-color="#E8B39D" stop-opacity="0" /></radialGradient><radialGradient xmlns="http://www.w3.org/2000/svg" id="sq-sleepy-floor-shadow" gradientUnits="userSpaceOnUse" cx="0" cy="0" r="1" gradientTransform="translate(375 586) scale(260 24)"><stop stop-color="#AE827D" stop-opacity="0.25" /><stop offset="1" stop-color="#AE827D" stop-opacity="0" /></radialGradient><radialGradient xmlns="http://www.w3.org/2000/svg" id="sq-sleepy-arm-shadow-left" gradientUnits="userSpaceOnUse" cx="0" cy="0" r="1" gradientTransform="translate(180 580) scale(118 47)"><stop stop-color="#B98270" stop-opacity="0.27" /><stop offset="1" stop-color="#B98270" stop-opacity="0" /></radialGradient><radialGradient xmlns="http://www.w3.org/2000/svg" id="sq-sleepy-arm-shadow-right" gradientUnits="userSpaceOnUse" cx="0" cy="0" r="1" gradientTransform="translate(488 580) scale(112 47)"><stop stop-color="#B98270" stop-opacity="0.25" /><stop offset="1" stop-color="#B98270" stop-opacity="0" /></radialGradient><radialGradient xmlns="http://www.w3.org/2000/svg" id="sq-sleepy-blush-fill"><stop stop-color="#F4899F" stop-opacity=".56" /><stop offset=".8" stop-color="#F4899F" stop-opacity=".42" /><stop offset="1" stop-color="#F4899F" stop-opacity=".22" /></radialGradient><linearGradient xmlns="http://www.w3.org/2000/svg" id="sq-sleepy-arm-blend" x1="0%" y1="0%" x2="25%" y2="100%"><stop stop-color="#F4DDCC" stop-opacity="0" /><stop offset=".28" stop-color="#F4DDCC" /><stop offset="1" stop-color="#E2BFA9" /></linearGradient><clipPath xmlns="http://www.w3.org/2000/svg" id="sq-sleepy-body-clip"><path id="sq-sleepy-body-clip-contour" d="M369 214C463 213 548 262 591 335C618 380 628 428 630 475C635 521 615 558 578 578C543 596 489 596 438 595H284C224 596 175 588 149 561C124 537 118 499 123 451C129 395 151 343 188 303C234 252 294 218 369 214Z" fill="#FFFFFF" /></clipPath></defs><g id="accents"><g transform="translate(12.25 44) scale(.65)"><g xmlns="http://www.w3.org/2000/svg" id="sq-sleepy-accents"><path id="sq-sleepy-sleep-z-0" d="M0 0H34V7L10 36H35V44H0V37L24 8H0Z" fill="#2B2340" transform="translate(531 174) rotate(-6) scale(0.95)" /><path id="sq-sleepy-sleep-z-1" d="M0 0H34V7L10 36H35V44H0V37L24 8H0Z" fill="#2B2340" transform="translate(575 119) rotate(-6) scale(1.18)" /><path id="sq-sleepy-sleep-z-2" d="M0 0H34V7L10 36H35V44H0V37L24 8H0Z" fill="#2B2340" transform="translate(644 59) rotate(-6) scale(1.48)" /></g></g></g></svg>