<svg xmlns="http://www.w3.org/2000/svg" viewBox="0 0 512 512" role="img" aria-labelledby="title"><title id="title">Squish — sleepy</title><g id="squish-sleepy" transform="translate(12.25 44) scale(.65)"><g id="shadow" ><path id="ground-shadow" d="M112 586a263 26 0 1 0 526 0a263 26 0 1 0 -526 0Z" fill="#2B2340" opacity=".06" /></g><g id="body" ><path id="body-base" d="M369 214C463 213 548 262 591 335C618 380 628 428 630 475C635 521 615 558 578 578C543 596 489 596 438 595H284C224 596 175 588 149 561C124 537 118 499 123 451C129 395 151 343 188 303C234 252 294 218 369 214Z" fill="#FDEADC" /></g><g id="feet" ><path id="foot-left" d="M223 557a82 32 0 1 0 164 0a82 32 0 1 0 -164 0Z" fill="#F6D7C4" opacity=".10"/><path id="foot-right" d="M363 557a82 32 0 1 0 164 0a82 32 0 1 0 -164 0Z" fill="#F6D7C4" opacity=".10"/></g><g id="face" data-mood="sleepy"><g id="eyes" transform="scale(4)"><path id="eye-left" d="M88.744 112.500C88.805 115.855 92.535 118.188 95.500 118.432C98.078 118.644 100.436 117.427 102.064 115.500C102.722 114.721 103.461 113.559 103.445 112.500C103.440 112.150 103.296 111.806 103.127 111.500C102.974 111.224 102.747 110.986 102.500 110.790C100.421 109.138 99.174 113.232 97.500 113.827C97.180 113.940 96.838 113.982 96.500 114.015C95.934 114.069 95.042 114.030 94.500 113.835C93.147 113.350 92.669 111.513 91.500 110.813C90.103 109.976 88.717 111.003 88.744 112.500Z" fill="#2B2340" /><path id="eye-right" d="M127.065 113.500C126.646 116.422 129.924 119.189 132.500 119.626C135.365 120.113 138.789 118.265 139.857 115.500C140.111 114.842 140.234 114.184 139.958 113.500C139.626 112.673 138.276 112.115 137.500 112.657C136.304 113.493 136.085 114.761 134.500 115.103C132.735 115.483 131.445 114.742 130.500 113.305C130.388 113.136 129.764 112.021 129.500 111.886C128.292 111.268 127.224 112.390 127.065 113.500Z" fill="#2B2340" /></g><g id="mouth" transform="scale(4)"><path id="mouth-shape" d="M107.168 122.500C107.180 123.073 108.055 124.164 108.317 124.500C108.609 124.874 109.100 125.035 109.500 125.288C110.920 126.189 112.811 126.838 114.500 126.985C116.025 127.118 117.099 126.757 118.500 126.322C119.617 125.976 120.565 125.809 121.500 125.078C122.278 124.470 123.130 123.561 123.105 122.500C123.076 121.242 121.780 120.136 120.500 120.531C119.265 120.911 118.719 122.403 117.500 122.766C116.580 123.040 115.450 123.007 114.500 122.991C113.082 122.966 112.507 122.665 111.500 121.756C111.084 121.382 110.152 120.203 109.500 120.178C108.366 120.134 107.145 121.368 107.168 122.500Z" fill="#2B2340" /></g><g id="blush" ><path id="blush-left" d="M303 500a37 33 0 1 0 74 0a37 33 0 1 0 -74 0Z" fill="#F4899F" opacity=".45"/><path id="blush-right" d="M535 500a33 32 0 1 0 66 0a33 32 0 1 0 -66 0Z" fill="#F4899F" opacity=".45"/></g></g><g id="props" ><path id="leaf-large" d="M459 276C419 270 394 227 407 186C412 165 423 170 438 179C470 197 485 234 473 264Z" fill="#7DC79A" /><path id="leaf-small" d="M461 278C463 251 486 232 509 234C526 237 516 255 505 264C491 275 476 279 461 278Z" fill="#7DC79A" /><path id="leaf-vein" d="M431 193C449 220 461 247 465 279L461 283C457 249 445 222 431 193Z" fill="#499979" /></g><g id="arms" ><g id="arm-left" ><path id="arm-left-base" d="M223 456C240 474 267 487 300 503C339 522 365 541 368 564C372 591 351 605 321 607C286 609 247 600 222 584C200 569 191 550 193 524C194 497 206 472 223 456Z" fill="#FDEADC" /></g><g id="arm-right" ><path id="arm-right-base" d="M616 456C600 483 583 496 570 513C554 535 550 559 558 577C566 593 590 598 616 592C646 585 666 567 672 544C677 518 658 481 636 464C629 458 622 456 616 456Z" fill="#FDEADC" /></g></g><g id="accents" ><path id="sleep-z-0" d="M0 0H34V7L10 36H35V44H0V37L24 8H0Z" fill="#2B2340" transform="translate(531 174) rotate(-6) scale(0.95)"/><path id="sleep-z-1" d="M0 0H34V7L10 36H35V44H0V37L24 8H0Z" fill="#2B2340" transform="translate(575 119) rotate(-6) scale(1.18)"/><path id="sleep-z-2" d="M0 0H34V7L10 36H35V44H0V37L24 8H0Z" fill="#2B2340" transform="translate(644 59) rotate(-6) scale(1.48)"/></g></g></svg>