<svg xmlns="http://www.w3.org/2000/svg" viewBox="0 0 512 512" role="img" aria-label="cheering silhouette"><defs><linearGradient id="sq-cheering-skin" gradientUnits="userSpaceOnUse" x1="200" y1="100" x2="450" y2="620"><stop offset="0" stop-color="#FFFFFF" /><stop offset=".4" stop-color="#FFFFFF" /><stop offset="1" stop-color="#FFFFFF" /></linearGradient><linearGradient id="sq-cheering-arm" x1="15%" y1="0%" x2="65%" y2="100%"><stop offset="0" stop-color="#FFFFFF" /><stop offset=".4" stop-color="#FFFFFF" /><stop offset="1" stop-color="#FFFFFF" /></linearGradient><linearGradient id="sq-cheering-rose" x1="15%" y1="0%" x2="65%" y2="100%"><stop offset="0" stop-color="#FFFFFF" /><stop offset=".5" stop-color="#FFFFFF" /><stop offset="1" stop-color="#FFFFFF" /></linearGradient><linearGradient id="sq-cheering-mint" x1="15%" y1="0%" x2="65%" y2="100%"><stop offset="0" stop-color="#FFFFFF" /><stop offset="1" stop-color="#FFFFFF" /></linearGradient><radialGradient id="sq-cheering-belly-light" gradientUnits="userSpaceOnUse" cx="0" cy="0" r="1" gradientTransform="translate(348 440) scale(220 230)"><stop stop-color="#FFFFFF" stop-opacity="0.56" /><stop offset="1" stop-color="#FFFFFF" stop-opacity="0" /></radialGradient><radialGradient id="sq-cheering-body-edge" gradientUnits="userSpaceOnUse" cx="0" cy="0" r="1" gradientTransform="translate(518 510) scale(230 250)"><stop stop-color="#FFFFFF" stop-opacity="0.22" /><stop offset="1" stop-color="#FFFFFF" stop-opacity="0" /></radialGradient><radialGradient id="sq-cheering-floor-shadow" gradientUnits="userSpaceOnUse" cx="0" cy="0" r="1" gradientTransform="translate(348 611) scale(260 24)"><stop stop-color="#FFFFFF" stop-opacity="0.25" /><stop offset="1" stop-color="#FFFFFF" stop-opacity="0" /></radialGradient><radialGradient id="sq-cheering-arm-shadow-left" gradientUnits="userSpaceOnUse" cx="0" cy="0" r="1" gradientTransform="translate(180 527) scale(118 47)"><stop stop-color="#FFFFFF" stop-opacity="0.27" /><stop offset="1" stop-color="#FFFFFF" stop-opacity="0" /></radialGradient><radialGradient id="sq-cheering-arm-shadow-right" gradientUnits="userSpaceOnUse" cx="0" cy="0" r="1" gradientTransform="translate(488 527) scale(112 47)"><stop stop-color="#FFFFFF" stop-opacity="0.25" /><stop offset="1" stop-color="#FFFFFF" stop-opacity="0" /></radialGradient><radialGradient id="sq-cheering-blush-fill"><stop stop-color="#FFFFFF" stop-opacity=".56" /><stop offset=".8" stop-color="#FFFFFF" stop-opacity=".42" /><stop offset="1" stop-color="#FFFFFF" stop-opacity=".22" /></radialGradient><linearGradient id="sq-cheering-arm-blend" x1="0%" y1="0%" x2="25%" y2="100%"><stop stop-color="#FFFFFF" stop-opacity="0" /><stop offset=".28" stop-color="#FFFFFF" /><stop offset="1" stop-color="#FFFFFF" /></linearGradient><clipPath id="sq-cheering-body-clip"><path id="sq-cheering-body-clip-contour" d="M344 92C427 90 495 141 529 219C554 277 566 342 571 411C581 490 571 541 540 575C512 605 474 614 431 615C396 616 367 610 348 599C326 612 297 616 263 615C217 614 178 603 151 574C124 544 119 504 121 454C124 383 136 306 158 248C193 151 257 94 344 92Z" fill="#FFFFFF" /></clipPath></defs><g transform="translate(29.80 44) scale(.65)"><g id="sq-cheering-body"><path id="sq-cheering-body-base" d="M344 92C427 90 495 141 529 219C554 277 566 342 571 411C581 490 571 541 540 575C512 605 474 614 431 615C396 616 367 610 348 599C326 612 297 616 263 615C217 614 178 603 151 574C124 544 119 504 121 454C124 383 136 306 158 248C193 151 257 94 344 92Z" fill="#FFFFFF" /><path id="sq-cheering-body-light" d="M344 92C427 90 495 141 529 219C554 277 566 342 571 411C581 490 571 541 540 575C512 605 474 614 431 615C396 616 367 610 348 599C326 612 297 616 263 615C217 614 178 603 151 574C124 544 119 504 121 454C124 383 136 306 158 248C193 151 257 94 344 92Z" fill="#FFFFFF" /><path id="sq-cheering-body-edge-shading" d="M344 92C427 90 495 141 529 219C554 277 566 342 571 411C581 490 571 541 540 575C512 605 474 614 431 615C396 616 367 610 348 599C326 612 297 616 263 615C217 614 178 603 151 574C124 544 119 504 121 454C124 383 136 306 158 248C193 151 257 94 344 92Z" fill="#FFFFFF" /></g></g><g transform="translate(29.80 44) scale(.65)"><g id="sq-cheering-feet"><path id="sq-cheering-foot-left" d="M208 582a70 32 0 1 0 140 0a70 32 0 1 0 -140 0Z" fill="#FFFFFF" opacity=".10" /><path id="sq-cheering-foot-right" d="M348 582a70 32 0 1 0 140 0a70 32 0 1 0 -140 0Z" fill="#FFFFFF" opacity=".10" /></g></g><g transform="translate(29.80 44) scale(.65)"><g id="sq-cheering-props"><path id="sq-cheering-crown-spark" d="M331 90C320 80 310 67 317 57C323 46 337 55 345 67C340 48 343 24 355 19C374 12 381 32 377 52L375 70C386 54 396 49 404 57C413 66 400 81 390 90Z" fill="#FFFFFF" /></g></g><g transform="translate(29.80 44) scale(.65)"><g id="sq-cheering-arms"><g id="sq-cheering-arm-left"><path id="sq-cheering-arm-left-base" d="M167 348C151 317 129 295 107 295C84 294 66 313 65 342C63 382 86 429 120 456C139 472 160 463 172 441C187 415 187 381 167 348Z" fill="#FFFFFF" /><path id="sq-cheering-arm-left-light" d="M167 348C151 317 129 295 107 295C84 294 66 313 65 342C63 382 86 429 120 456C139 472 160 463 172 441C187 415 187 381 167 348Z" fill="#FFFFFF" /><path id="sq-cheering-arm-left-edge" d="M167 348C151 317 129 295 107 295C84 294 66 313 65 342C63 382 86 429 120 456C139 472 160 463 172 441C187 415 187 381 167 348Z" fill="#FFFFFF" /></g><g id="sq-cheering-arm-right"><path id="sq-cheering-arm-right-base" d="M524 336C541 305 563 283 587 283C614 282 638 301 640 333C642 376 620 421 585 450C565 467 545 458 532 439C516 414 510 372 524 336Z" fill="#FFFFFF" /><path id="sq-cheering-arm-right-light" d="M524 336C541 305 563 283 587 283C614 282 638 301 640 333C642 376 620 421 585 450C565 467 545 458 532 439C516 414 510 372 524 336Z" fill="#FFFFFF" /><path id="sq-cheering-arm-right-edge" d="M524 336C541 305 563 283 587 283C614 282 638 301 640 333C642 376 620 421 585 450C565 467 545 458 532 439C516 414 510 372 524 336Z" fill="#FFFFFF" /></g></g></g><g transform="translate(29.80 44) scale(.65)"><g id="sq-cheering-accents"><path id="sq-cheering-spark-0" d="M80 132C87 126 94 134 100 141L128 175C138 187 128 195 118 188L80 160C68 150 69 140 80 132Z" fill="#FFFFFF" /><path id="sq-cheering-spark-1" d="M158 97C171 89 176 105 177 115L181 135L166 146L155 117C150 108 150 101 158 97Z" fill="#FFFFFF" /><path id="sq-cheering-spark-2" d="M58 211L88 221C101 225 100 239 86 237L55 232C43 230 43 213 58 211Z" fill="#FFFFFF" /><path id="sq-cheering-spark-3" d="M653 133C666 141 660 152 650 162L618 190C607 196 602 186 610 176L638 140C642 132 648 130 653 133Z" fill="#FFFFFF" /><path id="sq-cheering-spark-4" d="M577 113C590 115 589 125 584 134L580 154C577 163 567 160 567 150V126C567 118 571 113 577 113Z" fill="#FFFFFF" /><path id="sq-cheering-spark-5" d="M664 204C677 198 684 211 673 219L649 227C637 231 635 216 644 212Z" fill="#FFFFFF" /></g></g></svg>