<svg xmlns="http://www.w3.org/2000/svg" viewBox="0 0 512 512" role="img" aria-label="sleepy silhouette"><defs><linearGradient id="sq-sleepy-skin" gradientUnits="userSpaceOnUse" x1="200" y1="100" x2="450" y2="620"><stop offset="0" stop-color="#FFFFFF" /><stop offset=".4" stop-color="#FFFFFF" /><stop offset="1" stop-color="#FFFFFF" /></linearGradient><linearGradient id="sq-sleepy-arm" x1="15%" y1="0%" x2="65%" y2="100%"><stop offset="0" stop-color="#FFFFFF" /><stop offset=".4" stop-color="#FFFFFF" /><stop offset="1" stop-color="#FFFFFF" /></linearGradient><linearGradient id="sq-sleepy-rose" x1="15%" y1="0%" x2="65%" y2="100%"><stop offset="0" stop-color="#FFFFFF" /><stop offset=".5" stop-color="#FFFFFF" /><stop offset="1" stop-color="#FFFFFF" /></linearGradient><linearGradient id="sq-sleepy-mint" x1="15%" y1="0%" x2="65%" y2="100%"><stop offset="0" stop-color="#FFFFFF" /><stop offset="1" stop-color="#FFFFFF" /></linearGradient><radialGradient id="sq-sleepy-belly-light" gradientUnits="userSpaceOnUse" cx="0" cy="0" r="1" gradientTransform="translate(375 470) scale(220 230)"><stop stop-color="#FFFFFF" stop-opacity="0.56" /><stop offset="1" stop-color="#FFFFFF" stop-opacity="0" /></radialGradient><radialGradient id="sq-sleepy-body-edge" gradientUnits="userSpaceOnUse" cx="0" cy="0" r="1" gradientTransform="translate(545 510) scale(230 250)"><stop stop-color="#FFFFFF" stop-opacity="0.22" /><stop offset="1" stop-color="#FFFFFF" stop-opacity="0" /></radialGradient><radialGradient id="sq-sleepy-floor-shadow" gradientUnits="userSpaceOnUse" cx="0" cy="0" r="1" gradientTransform="translate(375 586) scale(260 24)"><stop stop-color="#FFFFFF" stop-opacity="0.25" /><stop offset="1" stop-color="#FFFFFF" stop-opacity="0" /></radialGradient><radialGradient id="sq-sleepy-arm-shadow-left" gradientUnits="userSpaceOnUse" cx="0" cy="0" r="1" gradientTransform="translate(180 580) scale(118 47)"><stop stop-color="#FFFFFF" stop-opacity="0.27" /><stop offset="1" stop-color="#FFFFFF" stop-opacity="0" /></radialGradient><radialGradient id="sq-sleepy-arm-shadow-right" gradientUnits="userSpaceOnUse" cx="0" cy="0" r="1" gradientTransform="translate(488 580) scale(112 47)"><stop stop-color="#FFFFFF" stop-opacity="0.25" /><stop offset="1" stop-color="#FFFFFF" stop-opacity="0" /></radialGradient><radialGradient id="sq-sleepy-blush-fill"><stop stop-color="#FFFFFF" stop-opacity=".56" /><stop offset=".8" stop-color="#FFFFFF" stop-opacity=".42" /><stop offset="1" stop-color="#FFFFFF" stop-opacity=".22" /></radialGradient><linearGradient id="sq-sleepy-arm-blend" x1="0%" y1="0%" x2="25%" y2="100%"><stop stop-color="#FFFFFF" stop-opacity="0" /><stop offset=".28" stop-color="#FFFFFF" /><stop offset="1" stop-color="#FFFFFF" /></linearGradient><clipPath id="sq-sleepy-body-clip"><path id="sq-sleepy-body-clip-contour" d="M369 214C463 213 548 262 591 335C618 380 628 428 630 475C635 521 615 558 578 578C543 596 489 596 438 595H284C224 596 175 588 149 561C124 537 118 499 123 451C129 395 151 343 188 303C234 252 294 218 369 214Z" fill="#FFFFFF" /></clipPath></defs><g transform="translate(12.25 44) scale(.65)"><g id="sq-sleepy-body"><path id="sq-sleepy-body-base" d="M369 214C463 213 548 262 591 335C618 380 628 428 630 475C635 521 615 558 578 578C543 596 489 596 438 595H284C224 596 175 588 149 561C124 537 118 499 123 451C129 395 151 343 188 303C234 252 294 218 369 214Z" fill="#FFFFFF" /><path id="sq-sleepy-body-light" d="M369 214C463 213 548 262 591 335C618 380 628 428 630 475C635 521 615 558 578 578C543 596 489 596 438 595H284C224 596 175 588 149 561C124 537 118 499 123 451C129 395 151 343 188 303C234 252 294 218 369 214Z" fill="#FFFFFF" /><path id="sq-sleepy-body-edge-shading" d="M369 214C463 213 548 262 591 335C618 380 628 428 630 475C635 521 615 558 578 578C543 596 489 596 438 595H284C224 596 175 588 149 561C124 537 118 499 123 451C129 395 151 343 188 303C234 252 294 218 369 214Z" fill="#FFFFFF" /></g></g><g transform="translate(12.25 44) scale(.65)"><g id="sq-sleepy-feet"><path id="sq-sleepy-foot-left" d="M223 557a82 32 0 1 0 164 0a82 32 0 1 0 -164 0Z" fill="#FFFFFF" opacity=".10" /><path id="sq-sleepy-foot-right" d="M363 557a82 32 0 1 0 164 0a82 32 0 1 0 -164 0Z" fill="#FFFFFF" opacity=".10" /></g></g><g transform="translate(12.25 44) scale(.65)"><g id="sq-sleepy-props"><path id="sq-sleepy-leaf-large" d="M459 276C419 270 394 227 407 186C412 165 423 170 438 179C470 197 485 234 473 264Z" fill="#FFFFFF" /><path id="sq-sleepy-leaf-small" d="M461 278C463 251 486 232 509 234C526 237 516 255 505 264C491 275 476 279 461 278Z" fill="#FFFFFF" /><path id="sq-sleepy-leaf-vein" d="M431 193C449 220 461 247 465 279L461 283C457 249 445 222 431 193Z" fill="#FFFFFF" /></g></g><g transform="translate(12.25 44) scale(.65)"><g id="sq-sleepy-arms"><g id="sq-sleepy-arm-left"><path id="sq-sleepy-arm-left-base" d="M223 456C240 474 267 487 300 503C339 522 365 541 368 564C372 591 351 605 321 607C286 609 247 600 222 584C200 569 191 550 193 524C194 497 206 472 223 456Z" fill="#FFFFFF" /><path id="sq-sleepy-arm-left-light" d="M223 456C240 474 267 487 300 503C339 522 365 541 368 564C372 591 351 605 321 607C286 609 247 600 222 584C200 569 191 550 193 524C194 497 206 472 223 456Z" fill="#FFFFFF" /><path id="sq-sleepy-arm-left-edge" d="M223 456C240 474 267 487 300 503C339 522 365 541 368 564C372 591 351 605 321 607C286 609 247 600 222 584C200 569 191 550 193 524C194 497 206 472 223 456Z" fill="#FFFFFF" /></g><g id="sq-sleepy-arm-right"><path id="sq-sleepy-arm-right-base" d="M616 456C600 483 583 496 570 513C554 535 550 559 558 577C566 593 590 598 616 592C646 585 666 567 672 544C677 518 658 481 636 464C629 458 622 456 616 456Z" fill="#FFFFFF" /><path id="sq-sleepy-arm-right-light" d="M616 456C600 483 583 496 570 513C554 535 550 559 558 577C566 593 590 598 616 592C646 585 666 567 672 544C677 518 658 481 636 464C629 458 622 456 616 456Z" fill="#FFFFFF" /><path id="sq-sleepy-arm-right-edge" d="M616 456C600 483 583 496 570 513C554 535 550 559 558 577C566 593 590 598 616 592C646 585 666 567 672 544C677 518 658 481 636 464C629 458 622 456 616 456Z" fill="#FFFFFF" /></g></g></g><g transform="translate(12.25 44) scale(.65)"><g id="sq-sleepy-accents"><path id="sq-sleepy-sleep-z-0" d="M0 0H34V7L10 36H35V44H0V37L24 8H0Z" fill="#FFFFFF" transform="translate(531 174) rotate(-6) scale(0.95)" /><path id="sq-sleepy-sleep-z-1" d="M0 0H34V7L10 36H35V44H0V37L24 8H0Z" fill="#FFFFFF" transform="translate(575 119) rotate(-6) scale(1.18)" /><path id="sq-sleepy-sleep-z-2" d="M0 0H34V7L10 36H35V44H0V37L24 8H0Z" fill="#FFFFFF" transform="translate(644 59) rotate(-6) scale(1.48)" /></g></g></svg>