<svg xmlns="http://www.w3.org/2000/svg" viewBox="0 0 240 240"><defs><linearGradient id="pink" x1="10%" y1="0%" x2="80%" y2="100%"><stop stop-color="#FFBDCD"/><stop offset="1" stop-color="#EB819E"/></linearGradient><linearGradient id="mint" x1="10%" y1="0%" x2="80%" y2="100%"><stop stop-color="#B6DBB8"/><stop offset="1" stop-color="#74B397"/></linearGradient><linearGradient id="gold" x1="10%" y1="0%" x2="80%" y2="100%"><stop stop-color="#FFE9A4"/><stop offset="1" stop-color="#EDC561"/></linearGradient><linearGradient id="purple" x1="10%" y1="0%" x2="80%" y2="100%"><stop stop-color="#D6CCFF"/><stop offset="1" stop-color="#A596DD"/></linearGradient><linearGradient id="peach" x1="10%" y1="0%" x2="80%" y2="100%"><stop stop-color="#FFE0BE"/><stop offset="1" stop-color="#F0B67F"/></linearGradient></defs><g id="front"><path d="M34 175V135A86 86 0 0 1 172 66A86 86 0 0 1 206 135V175" fill="none" stroke="#FFFFFF" stroke-width="29" stroke-linecap="round" stroke-linejoin="round"/><path d="M34 173V135A86 86 0 0 1 206 135V173" fill="none" stroke="#ED9EAF" stroke-width="20" stroke-linecap="round" stroke-linejoin="round"/><path d="M55 173V135A65 65 0 0 1 185 135V173" fill="none" stroke="#F2D289" stroke-width="20" stroke-linecap="round" stroke-linejoin="round"/><path d="M76 173V135A44 44 0 0 1 164 135V173" fill="none" stroke="#A0CDB2" stroke-width="20" stroke-linecap="round" stroke-linejoin="round"/><path d="M18 189Q-1 173 17 160Q15 139 35 142Q52 124 65 145Q89 141 88 161Q106 179 81 189Z" fill="#FFFFFF" stroke="#FFFFFF" stroke-width="8" stroke-linejoin="round"/><path d="M18 189Q-1 173 17 160Q15 139 35 142Q52 124 65 145Q89 141 88 161Q106 179 81 189Z" fill="#F5F0FF" /><path d="M164 189Q145 173 163 160Q161 139 181 142Q198 124 211 145Q235 141 234 161Q252 179 227 189Z" fill="#FFFFFF" stroke="#FFFFFF" stroke-width="8" stroke-linejoin="round"/><path d="M164 189Q145 173 163 160Q161 139 181 142Q198 124 211 145Q235 141 234 161Q252 179 227 189Z" fill="#F5F0FF" /></g></svg>